<svg id="Layer_1" data-name="Layer 1" xmlns="http://www.w3.org/2000/svg" viewBox="0 0 300 300"><defs><style>.cls-1{fill:#7f56d9;}</style></defs><path class="cls-1" d="M89.94,89.33v8.86A2.6,2.6,0,0,0,92,100.74l51.76,10a2.59,2.59,0,0,1,2.1,2.54v52.4a2.58,2.58,0,0,1-3.08,2.54L93,158.6a2.58,2.58,0,0,0-3.08,2.54V170A2.6,2.6,0,0,0,92,172.55l51.76,10a2.59,2.59,0,0,1,2.1,2.54v52.4a2.58,2.58,0,0,1-3.08,2.54L89.94,229.81l-15.75-3.07-36-7a2.59,2.59,0,0,1-2.09-2.54V21.2a2.58,2.58,0,0,1,3.08-2.54l50.8,9.86L143.79,39a2.59,2.59,0,0,1,2.1,2.54V93.9a2.59,2.59,0,0,1-3.08,2.54L93,86.79A2.58,2.58,0,0,0,89.94,89.33Z"/><path class="cls-1" d="M205.25,89.26V98.1a2.58,2.58,0,0,0,3.08,2.54l4.47-.86,48.06-9.34A2.58,2.58,0,0,1,263.94,93V217.19a2.59,2.59,0,0,1-2.09,2.54l-36,7-13,2.52-7.55,1.46-48.06,9.34a2.59,2.59,0,0,1-3.08-2.54v-52.4a2.59,2.59,0,0,1,2.09-2.54l49.05-9.53,5.46-1.06a2.58,2.58,0,0,0,2.09-2.54v-8.84a2.59,2.59,0,0,0-3.08-2.54l-4.47.87-48.06,9.31a2.58,2.58,0,0,1-3.08-2.54V41.5a2.59,2.59,0,0,1,2.1-2.54l49-9.5L212.8,28l48.06-9.33a2.58,2.58,0,0,1,3.08,2.54V73.59a2.6,2.6,0,0,1-2.09,2.55L212.8,85.66l-5.46,1.06A2.59,2.59,0,0,0,205.25,89.26Z"/><path class="cls-1" d="M300,32V250.19a2.6,2.6,0,0,1-2.1,2.55l-27.79,5.4-1.05.19-5.12,1-51.14,9.91-7.55,1.46-51.14,9.94-3.63.7a2.36,2.36,0,0,1-1,0l-3.6-.7L89.94,269.79,36.06,259.33l-5.12-1-1.05-.19L2.1,252.74A2.6,2.6,0,0,1,0,250.19V32a2.61,2.61,0,0,1,1.9-2.5l24.7-6.86a2.59,2.59,0,0,1,3.29,2.5V222.49A2.58,2.58,0,0,0,32,225l4.07.79,8.08,1.58,45.8,8.88,55.95,10.85,3.6.7a2.36,2.36,0,0,0,1,0l3.63-.7,51.14-9.91,7.55-1.47,43-8.35,8.11-1.58L268,225a2.58,2.58,0,0,0,2.1-2.54V25.17a2.59,2.59,0,0,1,3.29-2.5l24.7,6.86A2.61,2.61,0,0,1,300,32Z"/></svg>